<?xml version="1.0" encoding="UTF-8"?>
<svg version="1.1" xmlns="http://www.w3.org/2000/svg" width="512" height="512">
<path d="M0 0 C2.75617774 -0.0032296 5.51232893 -0.01241046 8.26849365 -0.02124023 C14.94713625 -0.03893041 21.62559799 -0.03522823 28.30424738 -0.02358967 C33.73712796 -0.01451791 39.16995823 -0.01334743 44.60284424 -0.01768494 C45.37913292 -0.01829787 46.15542159 -0.0189108 46.95523417 -0.01954231 C48.5327592 -0.02082134 50.11028422 -0.0221182 51.68780923 -0.02343267 C66.44439205 -0.03481063 81.20087511 -0.02176865 95.95744157 -0.00023121 C108.59081825 0.01763725 121.22404785 0.01453236 133.85742188 -0.00390625 C148.56492974 -0.02536236 163.27235041 -0.03371225 177.97987175 -0.0214572 C179.55125807 -0.02018314 181.12264441 -0.01892565 182.69403076 -0.01768494 C183.46697436 -0.01706783 184.23991796 -0.01645073 185.03628409 -0.01581493 C190.45611598 -0.01237621 195.87589208 -0.01815829 201.29571533 -0.02760315 C207.91004588 -0.0388774 214.52418681 -0.03567008 221.13849592 -0.01448017 C224.50663052 -0.00404181 227.87419195 -0.00191344 231.24236298 -0.01307678 C247.96444466 -0.06336775 262.94866561 0.29625391 278.0234375 8.33007812 C278.68843262 8.67337158 279.35342773 9.01666504 280.03857422 9.37036133 C285.38167693 12.20493144 290.0899815 15.54010181 294.6484375 19.51757812 C295.61652344 20.28972656 296.58460938 21.061875 297.58203125 21.85742188 C306.98274229 29.70460063 313.60891328 41.07434026 317.6484375 52.51757812 C317.98178856 53.4212915 318.31513962 54.32500488 318.65859222 55.25610352 C322.78630116 68.23804869 322.21075242 81.37128737 322.16601562 94.86914062 C322.16924523 97.62531836 322.17842608 100.38146956 322.18725586 103.13763428 C322.20494604 109.81627688 322.20124385 116.49473862 322.1896053 123.173388 C322.18053353 128.60626859 322.17936306 134.03909886 322.18370056 139.47198486 C322.18431349 140.24827354 322.18492643 141.02456222 322.18555793 141.82437479 C322.18683697 143.40189983 322.18813382 144.97942485 322.1894483 146.55694985 C322.20082625 161.31353268 322.18778427 176.07001574 322.16624683 190.82658219 C322.14837837 203.45995887 322.15148327 216.09318847 322.16992188 228.7265625 C322.19137798 243.43407037 322.19972788 258.14149104 322.18747282 272.84901237 C322.18619876 274.4203987 322.18494128 275.99178504 322.18370056 277.56317139 C322.18277491 278.72258678 322.18277491 278.72258678 322.18183056 279.90542471 C322.17839184 285.32525661 322.18417391 290.74503271 322.19361877 296.16485596 C322.20489302 302.77918651 322.20168571 309.39332743 322.1804958 316.00763655 C322.17005743 319.37577114 322.16792906 322.74333258 322.17909241 326.1115036 C322.22938338 342.83358528 321.86976172 357.81780623 313.8359375 372.89257812 C313.49264404 373.55757324 313.14935059 374.22256836 312.7956543 374.90771484 C309.96108418 380.25081756 306.62591382 384.95912212 302.6484375 389.51757812 C301.87628906 390.48566406 301.10414063 391.45375 300.30859375 392.45117188 C292.461415 401.85188292 281.09167537 408.47805391 269.6484375 412.51757812 C268.74472412 412.85092918 267.84101074 413.18428024 266.90991211 413.52773285 C253.92796694 417.65544179 240.79472825 417.07989305 227.296875 417.03515625 C224.54069726 417.03838585 221.78454607 417.04756671 219.02838135 417.05639648 C212.34973875 417.07408666 205.67127701 417.07038448 198.99262762 417.05874592 C193.55974704 417.04967416 188.12691677 417.04850368 182.69403076 417.05284119 C181.91774208 417.05345412 181.14145341 417.05406705 180.34164083 417.05469856 C178.7641158 417.05597759 177.18659078 417.05727445 175.60906577 417.05858892 C160.85248295 417.06996688 146.09599989 417.0569249 131.33943343 417.03538746 C118.70605675 417.017519 106.07282715 417.02062389 93.43945312 417.0390625 C78.73194526 417.06051861 64.02452459 417.0688685 49.31700325 417.05661345 C47.74561693 417.05533939 46.17423059 417.0540819 44.60284424 417.05284119 C43.82990064 417.05222408 43.05695704 417.05160698 42.26059091 417.05097118 C36.84075902 417.04753246 31.42098292 417.05331454 26.00115967 417.0627594 C19.38682912 417.07403365 12.77268819 417.07082633 6.15837908 417.04963642 C2.79024448 417.03919806 -0.57731695 417.03706969 -3.94548798 417.04823303 C-20.66756966 417.098524 -35.65179061 416.73890234 -50.7265625 408.70507812 C-51.39155762 408.36178467 -52.05655273 408.01849121 -52.74169922 407.66479492 C-58.08480193 404.83022481 -62.7931065 401.49505444 -67.3515625 397.51757812 C-68.31964844 396.74542969 -69.28773437 395.97328125 -70.28515625 395.17773438 C-79.68586729 387.33055562 -86.31203828 375.96081599 -90.3515625 364.51757812 C-90.68491356 363.61386475 -91.01826462 362.71015137 -91.36171722 361.77905273 C-95.48942616 348.79710756 -94.91387742 335.66386888 -94.86914062 322.16601562 C-94.87237023 319.40983789 -94.88155108 316.65368669 -94.89038086 313.89752197 C-94.90807104 307.21887937 -94.90436885 300.54041763 -94.8927303 293.86176825 C-94.88365853 288.42888766 -94.88248806 282.99605739 -94.88682556 277.56317139 C-94.88743849 276.78688271 -94.88805143 276.01059403 -94.88868293 275.21078146 C-94.88996197 273.63325642 -94.89125882 272.0557314 -94.8925733 270.4782064 C-94.90395125 255.72162357 -94.89090927 240.96514051 -94.86937183 226.20857406 C-94.85150337 213.57519738 -94.85460827 200.94196778 -94.87304688 188.30859375 C-94.89450298 173.60108588 -94.90285288 158.89366521 -94.89059782 144.18614388 C-94.88932376 142.61475755 -94.88806628 141.04337121 -94.88682556 139.47198486 C-94.88589991 138.31256947 -94.88589991 138.31256947 -94.88495556 137.12973154 C-94.88151684 131.70989964 -94.88729891 126.29012354 -94.89674377 120.87030029 C-94.90801802 114.25596974 -94.90481071 107.64182882 -94.8836208 101.0275197 C-94.87318243 97.65938511 -94.87105406 94.29182367 -94.88221741 90.92365265 C-94.93250838 74.20157097 -94.57288672 59.21735002 -86.5390625 44.14257812 C-86.19576904 43.47758301 -85.85247559 42.81258789 -85.4987793 42.12744141 C-82.66420918 36.78433869 -79.32903882 32.07603413 -75.3515625 27.51757812 C-74.19333984 26.06544922 -74.19333984 26.06544922 -73.01171875 24.58398438 C-65.16454 15.18327333 -53.79480037 8.55710234 -42.3515625 4.51757812 C-41.44784912 4.18422707 -40.54413574 3.85087601 -39.61303711 3.5074234 C-26.63109194 -0.62028554 -13.49785325 -0.0447368 0 0 Z M-50.6015625 49.83007812 C-60.97183987 61.95627895 -62.5099915 75.89324795 -62.48527527 91.23114014 C-62.48754083 92.27504701 -62.48980638 93.31895388 -62.49214059 94.3944943 C-62.49844396 97.87401022 -62.49765359 101.35348683 -62.49682617 104.83300781 C-62.49981995 107.33537852 -62.50322298 109.83774877 -62.50700378 112.34011841 C-62.5149103 118.42128201 -62.51805747 124.50243031 -62.51861616 130.58359763 C-62.51909253 135.53035524 -62.52115328 140.47710967 -62.52431679 145.42386627 C-62.53311643 159.4712482 -62.53773724 173.51862252 -62.53698631 187.56600723 C-62.53694636 188.32217406 -62.5369064 189.07834089 -62.53686523 189.85742188 C-62.53682435 190.61451971 -62.53678347 191.37161754 -62.53674135 192.15165773 C-62.53633508 204.41578363 -62.54590176 216.67987879 -62.5600036 228.9439958 C-62.57439324 241.55867412 -62.58127236 254.17333747 -62.58040982 266.78802419 C-62.58007875 273.86136884 -62.58278651 280.93468127 -62.59358788 288.00801849 C-62.60368594 294.66305264 -62.60333116 301.3180077 -62.59607124 307.97304916 C-62.59502846 310.40900904 -62.59737 312.84497319 -62.6034317 315.28092575 C-62.71895225 345.53942924 -62.71895225 345.53942924 -47.25 370.68164062 C-34.66735546 382.5528989 -20.27311854 384.67809754 -3.63800049 384.65129089 C-2.59409362 384.65355645 -1.55018674 384.65582201 -0.47464633 384.65815622 C3.0048696 384.66445959 6.4843462 384.66366921 9.96386719 384.6628418 C12.46623789 384.66583557 14.96860814 384.66923861 17.47097778 384.67301941 C23.55214139 384.68092592 29.63328968 384.6840731 35.71445701 384.68463179 C40.66121461 384.68510815 45.60796904 384.68716891 50.55472565 384.69033241 C64.60210758 384.69913206 78.64948189 384.70375287 92.6968666 384.70300194 C93.45303344 384.70296198 94.20920027 384.70292203 94.98828125 384.70288086 C95.74537908 384.70283998 96.50247691 384.7027991 97.28251711 384.70275698 C109.546643 384.7023507 121.81073817 384.71191739 134.07485518 384.72601923 C146.68953349 384.74040887 159.30419684 384.74728799 171.91888356 384.74642545 C178.99222821 384.74609437 186.06554064 384.74880213 193.13887787 384.7596035 C199.79391202 384.76970157 206.44886707 384.76934679 213.10390854 384.76208687 C215.53986841 384.76104409 217.97583257 384.76338563 220.41178513 384.76944733 C250.67028861 384.88496787 250.67028861 384.88496787 275.8125 369.41601562 C287.68375828 356.83337108 289.80895691 342.43913417 289.78215027 325.80401611 C289.78441583 324.76010924 289.78668138 323.71620237 289.78901559 322.64066195 C289.79531896 319.16114603 289.79452859 315.68166942 289.79370117 312.20214844 C289.79669495 309.69977773 289.80009798 307.19740748 289.80387878 304.69503784 C289.8117853 298.61387424 289.81493247 292.53272594 289.81549116 286.45155862 C289.81596753 281.50480101 289.81802828 276.55804658 289.82119179 271.61128998 C289.82999143 257.56390805 289.83461224 243.51653373 289.83386131 229.46914902 C289.83382136 228.71298219 289.8337814 227.95681536 289.83374023 227.17773438 C289.83369935 226.42063654 289.83365847 225.66353871 289.83361635 224.88349852 C289.83321008 212.61937262 289.84277676 200.35527746 289.8568786 188.09116045 C289.87126824 175.47648213 289.87814736 162.86181878 289.87728482 150.24713206 C289.87695375 143.17378741 289.87966151 136.10047498 289.89046288 129.02713776 C289.90056094 122.37210361 289.90020616 115.71714855 289.89294624 109.06210709 C289.89190346 106.62614721 289.894245 104.19018306 289.9003067 101.7542305 C290.01582725 71.49572701 290.01582725 71.49572701 274.546875 46.35351562 C261.96423046 34.48225735 247.56999354 32.35705871 230.93487549 32.38386536 C229.89096862 32.3815998 228.84706174 32.37933424 227.77152133 32.37700003 C224.2920054 32.37069666 220.8125288 32.37148704 217.33300781 32.37231445 C214.83063711 32.36932068 212.32826686 32.36591764 209.82589722 32.36213684 C203.74473361 32.35423033 197.66358532 32.35108315 191.58241799 32.35052446 C186.63566039 32.3500481 181.68890596 32.34798734 176.74214935 32.34482384 C162.69476742 32.33602419 148.64739311 32.33140338 134.6000084 32.33215431 C133.84384156 32.33219427 133.08767473 32.33223422 132.30859375 32.33227539 C131.55149592 32.33231627 130.79439809 32.33235715 130.01435789 32.33239927 C117.750232 32.33280555 105.48613683 32.32323886 93.22201982 32.30913702 C80.60734151 32.29474738 67.99267816 32.28786826 55.37799144 32.2887308 C48.30464679 32.28906188 41.23133436 32.28635412 34.15799713 32.27555275 C27.50296298 32.26545468 20.84800793 32.26580946 14.19296646 32.27306938 C11.75700659 32.27411216 9.32104243 32.27177062 6.88508987 32.26570892 C-15.62068001 32.21335296 -34.24149828 32.48963553 -50.6015625 49.83007812 Z " fill="#0096FF" transform="translate(142.3515625,47.482421875)"/>
<path d="M0 0 C8.34947239 6.30552155 15.30619365 13.54358094 18.6875 23.6875 C19.86779785 23.6968457 21.0480957 23.70619141 22.26416016 23.71582031 C26.65906998 23.75580648 31.05328613 23.82158915 35.44775391 23.89501953 C37.34675154 23.9231792 39.2458653 23.94441858 41.14501953 23.95849609 C43.88113638 23.97999518 46.61586452 24.02668008 49.3515625 24.078125 C50.61753769 24.07996796 50.61753769 24.07996796 51.90908813 24.08184814 C57.30468188 24.21477765 60.38941624 25.13808303 64.6875 28.6875 C68.31583663 32.50680172 68.99750458 35.57029006 69.1875 40.6875 C68.99750458 45.80470994 68.31583663 48.86819828 64.6875 52.6875 C59.56699925 56.91608029 55.71458296 57.28761197 49.3515625 57.296875 C48.47221039 57.31341125 47.59285828 57.32994751 46.68685913 57.34698486 C43.89533408 57.39532914 41.10435324 57.41680535 38.3125 57.4375 C36.41273324 57.46567108 34.51299168 57.4956001 32.61328125 57.52734375 C27.971399 57.60108434 23.32981645 57.65074173 18.6875 57.6875 C18.37514404 58.34919189 18.06278809 59.01088379 17.7409668 59.69262695 C11.65057031 72.28435766 2.44362919 81.82453013 -10.6875 87.125 C-22.79391427 90.73815465 -37.98224811 90.46304069 -49.3125 84.6875 C-60.052527 78.40823675 -69.29106521 69.75180436 -73.3125 57.6875 C-74.00787683 57.68603344 -74.70325367 57.68456688 -75.41970253 57.68305588 C-92.34600891 57.64599132 -109.27208238 57.58698144 -126.19822121 57.50359726 C-134.38361563 57.46380136 -142.56891383 57.43141171 -150.75439453 57.41650391 C-157.88953568 57.4034902 -165.02446518 57.37653288 -172.15948713 57.33288693 C-175.93687859 57.31026557 -179.71400894 57.29458971 -183.49147415 57.29561615 C-187.04897755 57.29636239 -190.6059036 57.27842727 -194.1632576 57.24633217 C-196.08721156 57.23378808 -198.01126242 57.24090011 -199.9352417 57.24864197 C-206.33942282 57.17133652 -210.49023392 57.08787712 -215.3125 52.6875 C-218.94083663 48.86819828 -219.62250458 45.80470994 -219.8125 40.6875 C-219.62250458 35.57029006 -218.94083663 32.50680172 -215.3125 28.6875 C-209.59492479 23.47014229 -203.59389027 24.11163608 -196.14697266 24.14160156 C-194.80619104 24.13285973 -193.46541985 24.12237181 -192.12466431 24.11027527 C-188.49695273 24.0824687 -184.86958246 24.07900938 -181.2417798 24.07999516 C-177.44605184 24.07686142 -173.65047655 24.05123366 -169.85482788 24.02801514 C-162.67267153 23.98748677 -155.4906059 23.96712191 -148.30835283 23.95404124 C-140.12932794 23.93816044 -131.95045719 23.8997403 -123.77152181 23.85944796 C-106.95189222 23.77709234 -90.13229519 23.7229732 -73.3125 23.6875 C-72.80773384 22.655467 -72.80773384 22.655467 -72.29277039 21.60258484 C-71.84770645 20.70078995 -71.40264252 19.79899506 -70.9440918 18.86987305 C-70.50445602 17.97560104 -70.06482025 17.08132904 -69.61186218 16.15995789 C-64.32243904 6.09511521 -54.34205146 -1.55013183 -43.9375 -5.75 C-29.23024352 -10.139375 -12.78284537 -8.48368213 0 0 Z M-40.6875 32.3125 C-42.89157893 36.89020239 -43.1096639 40.69302411 -42.3125 45.6875 C-39.98281069 50.52608548 -37.15108548 53.35781069 -32.3125 55.6875 C-27.31802411 56.4846639 -23.51520239 56.26657893 -18.9375 54.0625 C-15.35342287 50.81976355 -12.71714759 48.22274104 -11.9296875 43.2890625 C-11.67366081 37.60527006 -12.37623068 34.03811345 -16.3125 29.6875 C-20.66311345 25.75123068 -24.23027006 25.04866081 -29.9140625 25.3046875 C-34.84774104 26.09214759 -37.44476355 28.72842287 -40.6875 32.3125 Z " fill="#0096FF" transform="translate(331.3125,295.3125)"/>
<path d="M0 0 C8.34947239 6.30552155 15.30619365 13.54358094 18.6875 23.6875 C19.73056525 23.68969984 19.73056525 23.68969984 20.79470253 23.69194412 C37.72100891 23.72900868 54.64708238 23.78801856 71.57322121 23.87140274 C79.75861563 23.91119864 87.94391383 23.94358829 96.12939453 23.95849609 C103.26453568 23.9715098 110.39946518 23.99846712 117.53448713 24.04211307 C121.31187859 24.06473443 125.08900894 24.08041029 128.86647415 24.07938385 C132.42397755 24.07863761 135.9809036 24.09657273 139.5382576 24.12866783 C141.46221156 24.14121192 143.38626242 24.13409989 145.3102417 24.12635803 C151.71442282 24.20366348 155.86523392 24.28712288 160.6875 28.6875 C164.31583663 32.50680172 164.99750458 35.57029006 165.1875 40.6875 C164.99750458 45.80470994 164.31583663 48.86819828 160.6875 52.6875 C154.96992479 57.90485771 148.96889027 57.26336392 141.52197266 57.23339844 C140.18119104 57.24214027 138.84041985 57.25262819 137.49966431 57.26472473 C133.87195273 57.2925313 130.24458246 57.29599062 126.6167798 57.29500484 C122.82105184 57.29813858 119.02547655 57.32376634 115.22982788 57.34698486 C108.04767153 57.38751323 100.8656059 57.40787809 93.68335283 57.42095876 C85.50432794 57.43683956 77.32545719 57.4752597 69.14652181 57.51555204 C52.32689222 57.59790766 35.50729519 57.6520268 18.6875 57.6875 C18.18273384 58.719533 18.18273384 58.719533 17.66777039 59.77241516 C17.22270645 60.67421005 16.77764252 61.57600494 16.3190918 62.50512695 C15.87945602 63.39939896 15.43982025 64.29367096 14.98686218 65.21504211 C9.69743904 75.27988479 -0.28294854 82.92513183 -10.6875 87.125 C-22.79391427 90.73815465 -37.98224811 90.46304069 -49.3125 84.6875 C-60.052527 78.40823675 -69.29106521 69.75180436 -73.3125 57.6875 C-74.49279785 57.6781543 -75.6730957 57.66880859 -76.88916016 57.65917969 C-81.28406998 57.61919352 -85.67828613 57.55341085 -90.07275391 57.47998047 C-91.97175154 57.4518208 -93.8708653 57.43058142 -95.77001953 57.41650391 C-98.50613638 57.39500482 -101.24086452 57.34831992 -103.9765625 57.296875 C-105.24253769 57.29503204 -105.24253769 57.29503204 -106.53408813 57.29315186 C-111.92968188 57.16022235 -115.01441624 56.23691697 -119.3125 52.6875 C-122.94083663 48.86819828 -123.62250458 45.80470994 -123.8125 40.6875 C-123.62250458 35.57029006 -122.94083663 32.50680172 -119.3125 28.6875 C-114.19199925 24.45891971 -110.33958296 24.08738803 -103.9765625 24.078125 C-103.09721039 24.06158875 -102.21785828 24.04505249 -101.31185913 24.02801514 C-98.52033408 23.97967086 -95.72935324 23.95819465 -92.9375 23.9375 C-91.03773324 23.90932892 -89.13799168 23.8793999 -87.23828125 23.84765625 C-82.596399 23.77391566 -77.95481645 23.72425827 -73.3125 23.6875 C-73.00014404 23.02580811 -72.68778809 22.36411621 -72.3659668 21.68237305 C-66.27557031 9.09064234 -57.06862919 -0.44953013 -43.9375 -5.75 C-29.23024352 -10.139375 -12.78284537 -8.48368213 0 0 Z M-40.6875 32.3125 C-42.89157893 36.89020239 -43.1096639 40.69302411 -42.3125 45.6875 C-39.98281069 50.52608548 -37.15108548 53.35781069 -32.3125 55.6875 C-27.31802411 56.4846639 -23.51520239 56.26657893 -18.9375 54.0625 C-15.35342287 50.81976355 -12.71714759 48.22274104 -11.9296875 43.2890625 C-11.67366081 37.60527006 -12.37623068 34.03811345 -16.3125 29.6875 C-20.66311345 25.75123068 -24.23027006 25.04866081 -29.9140625 25.3046875 C-34.84774104 26.09214759 -37.44476355 28.72842287 -40.6875 32.3125 Z " fill="#0096FF" transform="translate(235.3125,135.3125)"/>
</svg>
